<svg width="32" height="32" viewBox="0 0 32 32" fill="none" xmlns="http://www.w3.org/2000/svg">
<path d="M15.9945 29.3235C23.3558 29.3235 29.3233 23.3561 29.3233 15.9948C29.3233 8.63351 23.3558 2.66602 15.9945 2.66602C8.63326 2.66602 2.66577 8.63351 2.66577 15.9948C2.66577 23.3561 8.63326 29.3235 15.9945 29.3235Z" stroke="#2B7FFF" stroke-width="2.66575" stroke-linecap="round" stroke-linejoin="round"/>
<path d="M15.9946 23.9916C20.4113 23.9916 23.9918 20.4111 23.9918 15.9943C23.9918 11.5776 20.4113 7.99707 15.9946 7.99707C11.5778 7.99707 7.99731 11.5776 7.99731 15.9943C7.99731 20.4111 11.5778 23.9916 15.9946 23.9916Z" stroke="#2B7FFF" stroke-width="2.66575" stroke-linecap="round" stroke-linejoin="round"/>
<path d="M15.9945 18.6606C17.4667 18.6606 18.6602 17.4671 18.6602 15.9949C18.6602 14.5226 17.4667 13.3291 15.9945 13.3291C14.5222 13.3291 13.3287 14.5226 13.3287 15.9949C13.3287 17.4671 14.5222 18.6606 15.9945 18.6606Z" stroke="#2B7FFF" stroke-width="2.66575" stroke-linecap="round" stroke-linejoin="round"/>
</svg>
