<svg width="32" height="32" viewBox="0 0 32 32" fill="none" xmlns="http://www.w3.org/2000/svg">
<path d="M12.8947 5.51422C12.9682 4.74134 13.3271 4.02361 13.9015 3.50126C14.4759 2.9789 15.2243 2.68945 16.0007 2.68945C16.7771 2.68945 17.5255 2.9789 18.0999 3.50126C18.6743 4.02361 19.0332 4.74134 19.1067 5.51422C19.1509 6.01349 19.3147 6.49477 19.5842 6.91734C19.8538 7.3399 20.2212 7.69129 20.6553 7.94178C21.0895 8.19227 21.5776 8.33448 22.0783 8.35638C22.579 8.37827 23.0777 8.2792 23.532 8.06755C24.2375 7.74725 25.0369 7.70091 25.7747 7.93753C26.5125 8.17415 27.1358 8.67682 27.5234 9.34769C27.911 10.0186 28.0351 10.8096 27.8716 11.567C27.708 12.3243 27.2686 12.9937 26.6387 13.4449C26.2285 13.7327 25.8937 14.115 25.6626 14.5596C25.4314 15.0041 25.3108 15.4978 25.3108 15.9989C25.3108 16.4999 25.4314 16.9936 25.6626 17.4382C25.8937 17.8827 26.2285 18.2651 26.6387 18.5529C27.2686 19.0041 27.708 19.6735 27.8716 20.4308C28.0351 21.1881 27.911 21.9792 27.5234 22.6501C27.1358 23.3209 26.5125 23.8236 25.7747 24.0602C25.0369 24.2969 24.2375 24.2505 23.532 23.9302C23.0777 23.7186 22.579 23.6195 22.0783 23.6414C21.5776 23.6633 21.0895 23.8055 20.6553 24.056C20.2212 24.3065 19.8538 24.6579 19.5842 25.0804C19.3147 25.503 19.1509 25.9843 19.1067 26.4835C19.0332 27.2564 18.6743 27.9741 18.0999 28.4965C17.5255 29.0189 16.7771 29.3083 16.0007 29.3083C15.2243 29.3083 14.4759 29.0189 13.9015 28.4965C13.3271 27.9741 12.9682 27.2564 12.8947 26.4835C12.8506 25.9841 12.6868 25.5026 12.4172 25.0799C12.1475 24.6572 11.78 24.3057 11.3457 24.0552C10.9114 23.8047 10.4231 23.6625 9.92214 23.6407C9.42122 23.619 8.92244 23.7183 8.46804 23.9302C7.76256 24.2505 6.96314 24.2969 6.22537 24.0602C5.4876 23.8236 4.86427 23.3209 4.47668 22.6501C4.0891 21.9792 3.96499 21.1881 4.12852 20.4308C4.29205 19.6735 4.73151 19.0041 5.36137 18.5529C5.77153 18.2651 6.10635 17.8827 6.33749 17.4382C6.56864 16.9936 6.68931 16.4999 6.68931 15.9989C6.68931 15.4978 6.56864 15.0041 6.33749 14.5596C6.10635 14.115 5.77153 13.7327 5.36137 13.4449C4.73239 12.9935 4.29371 12.3243 4.13057 11.5675C3.96744 10.8107 4.09152 10.0203 4.47869 9.34983C4.86585 8.6794 5.48846 8.17685 6.22549 7.93987C6.96253 7.70289 7.76135 7.74839 8.46671 8.06755C8.92105 8.2792 9.4197 8.37827 9.92044 8.35638C10.4212 8.33448 10.9093 8.19227 11.3434 7.94178C11.7776 7.69129 12.145 7.3399 12.4145 6.91734C12.6841 6.49477 12.8479 6.01349 12.892 5.51422" stroke="black" stroke-width="1.33235" stroke-linecap="round" stroke-linejoin="round"/>
<path d="M16 20C18.2091 20 20 18.2091 20 16C20 13.7909 18.2091 12 16 12C13.7909 12 12 13.7909 12 16C12 18.2091 13.7909 20 16 20Z" stroke="black" stroke-width="1.33235" stroke-linecap="round" stroke-linejoin="round"/>
</svg>
